<?xml version="1.0" encoding="UTF-8"?>
<svg id="Layer_1" data-name="Layer 1" xmlns="http://www.w3.org/2000/svg" viewBox="0 0 600 600">
  <defs>
    <style>
      .cls-1 {
        fill: #fff;
      }
    </style>
  </defs>
  <path class="cls-1" d="M530.74,126.57H71.88c-19.83,0-35.95,16.13-35.95,35.95v274.49c0,20.08,16.34,36.41,36.41,36.41h456.56c19.83,0,35.96-16.13,35.96-35.95V160.69c0-18.81-15.3-34.12-34.12-34.12ZM299.49,331.13L74.45,149.74h452.65l-227.61,181.39ZM219.54,296.45L59.09,432.04V167.13l160.45,129.32ZM237.92,311.26l52.5,42.32c2.32,2.29,5.51,3.7,9.03,3.7s6.58-1.37,8.89-3.58l53.35-42.52,166.44,139.06H73.44l164.48-138.99ZM380.19,296.45l161.49-128.7v263.63l-161.49-134.93Z"/>
</svg>