<?xml version="1.0" encoding="UTF-8"?>
<svg id="Layer_1" data-name="Layer 1" xmlns="http://www.w3.org/2000/svg" viewBox="0 0 600 600">
  <defs>
    <style>
      .cls-1 {
        fill: #fff;
      }
    </style>
  </defs>
  <path class="cls-1" d="M569.08,258.34l-55.23-9.8c-.21-.04-.38-.18-.45-.38l-20.66-57.03c-.08-.23-.05-.48.08-.68l31.47-46.58c.26-.39.21-.9-.12-1.23l-60.51-60.51c-.33-.33-.86-.38-1.24-.11l-45.87,32.04c-.25.17-.57.21-.84.09l-61.32-26.5c-.11-.05-.19-.15-.22-.27l-10.72-55.38c-.09-.46-.49-.79-.95-.79h-85.58c-.47,0-.87.34-.96.8l-9.68,54.56c-.11.63-.53,1.16-1.12,1.41l-59.02,25.17c-1.24.53-2.67.39-3.78-.36l-45.11-30.48c-.39-.26-.9-.21-1.23.12l-60.51,60.51c-.33.33-.38.86-.11,1.24l32.01,45.83c.19.27.24.63.12.94l-20.76,54.17c-.17.46-.57.79-1.05.88l-54.8,10.61c-.46.09-.79.49-.79.95v85.58c0,.47.34.87.8.96l55.42,9.83c.09.02.17.08.2.17l20.55,59.03c.18.53.11,1.12-.21,1.58l-31.19,46.16c-.26.39-.21.9.12,1.23l60.51,60.51c.33.33.86.38,1.24.11l45.97-32.11c.19-.13.42-.16.64-.09l61.97,21.88s.04.03.04.05l10.75,55.53c.09.46.49.79.95.79h85.58c.47,0,.87-.34.96-.8l9.65-54.4c.13-.72.64-1.32,1.33-1.56l61.21-21.27s.04,0,.06,0l46.87,31.67c.39.26.9.21,1.23-.12l60.51-60.51c.33-.33.38-.86.11-1.24l-31.89-45.64c-.27-.39-.34-.89-.18-1.34l20.08-56.69c.07-.19.22-.32.42-.36l55.26-10.69c.46-.09.79-.49.79-.95v-85.58c0-.47-.34-.87-.8-.96ZM300,436.25c-75.25,0-136.25-61-136.25-136.25s61-136.25,136.25-136.25,136.25,61,136.25,136.25-61,136.25-136.25,136.25Z"/>
</svg>