<?xml version="1.0" encoding="UTF-8"?>
<svg id="Layer_1" data-name="Layer 1" xmlns="http://www.w3.org/2000/svg" viewBox="0 0 600 600">
  <path d="M280.46,3.77s-121.35,98.43-187.47,172.82l-36.44,109.32s54.47,88.29,135.25,184.09c0,0,138.25-28.93,210.01-67.25l48.46-133.74-84.15-80.4-82.28,21.79-34.56,58.23,21.04,40.2,27.05-2.63-13.9-8.27-6.76-28.55,21.79-28.93,47.34-9.39s34.19,29.3,51.09,45.83c0,0-4.13,28.55-33.44,94.3,0,0-84.58,51.97-145.77,53.72,0,0-80.02-76.64-98.43-134.12,0,0,10.52-34.19,12.4-72.13L280.46,3.77Z"/>
  <path d="M284.22,596.23l166.05-141.26s48.09-74.01,93.17-166.05c0,0-22.54-45.46-56.35-143.51,0,0-161.17-48.09-193.85-40.95l-101.06,96.93-15.03,96.93,70.25,81.15,84.9-33.44,20.29-53.35-28.93-25.92-19.16,6.01,19.91,18.03-5.26,29.3-61.24,24.8-45.46-53.72,11.65-72.88s40.57-42.45,99.18-78.52c0,0,71.38,16.91,131.87,39.82l44.33,96.93-61.99,150.27-153.28,169.43Z"/>
</svg>