<?xml version="1.0" encoding="UTF-8"?>
<svg id="Layer_1" data-name="Layer 1" xmlns="http://www.w3.org/2000/svg" viewBox="0 0 600 600">
  <defs>
    <style>
      .cls-1 {
        fill: #fff;
      }
    </style>
  </defs>
  <path class="cls-1" d="M530.1,445.17c1.66-2.4,2.64-5.3,2.64-8.44V24.79c0-9.02-7.31-16.33-16.33-16.33H138.18c-38.51,0-69.72,31.22-69.72,69.72v395.45c-.04.26-.09.51-.13.77-3.3,23.6,1.04,43.1,12.88,57.94,17.14,21.48,43.13,24.27,46.04,24.52l.61.05h182.46v20.29c.02,5.36,3.01,10.26,7.76,12.72h0c4.73,2.45,10.43,2.08,14.79-.98l38.41-27.69s.1-.03.14,0l35.03,25.6c5.24,3.83,12.22,4.15,17.84.69,4.83-2.97,7.58-8.43,7.58-14.11v-16.53h85.6c5.04,0,9.9-2.4,12.61-6.66,3.17-4.99,2.99-11.27-.37-16.05-.43-.61-10.57-15.13-15.13-33.52-5.41-21.79-1.08-39.04,13.32-52.82.85-.83,1.58-1.74,2.19-2.71ZM169.43,37.12c0-.05.04-.1.1-.1h334.55c.05,0,.1.04.1.1v385.79c0,.05-.04.1-.1.1H169.53c-.05,0-.1-.04-.1-.1V37.12ZM138.18,37.03h2.58c.05,0,.1.04.1.1v386h-10.18s0,0,0,0c-9.03-.75-21.88.74-33.65,7.05V78.18c0-22.73,18.42-41.15,41.15-41.15ZM403.32,548.95c0,.1-.11.15-.19.1l-31.59-23.08s-.1-.03-.14,0l-32.32,23.3c-.08.06-.19,0-.19-.1v-4.26c.13-.78.22-1.58.22-2.4v-44.38c0-.05.05-.1.1-.1l64.02.22c.05,0,.1.04.1.1v50.6ZM493.88,528.35h-61.9c-.05,0-.1-.04-.1-.1v-44.11c0-5.64-3.26-10.51-7.97-12.88-.26-.14-.54-.26-.81-.39,0,0-.01,0-.02,0-1.97-.92-4.15-1.45-6.47-1.45h-89.03s-.07,0-.11,0h-2.53c-7.95,0-14.41,6.46-14.41,14.4v.24c-.13.86-.22,1.73-.22,2.63v41.66h-181.03s0,0-.01,0c-2.76-.38-17.12-2.87-25.86-13.98-6.67-8.46-8.95-20.58-6.8-36.01,3.6-25.78,24.2-27.07,30.77-26.81l.47.15h362.51c.07,0,.11.07.09.13-7.42,16.39-8.69,35.25-3.59,55.75,1.89,7.6,4.45,14.59,7.11,20.64.03.06-.02.13-.09.13Z"/>
  <path class="cls-1" d="M341.9,241.09l6.81,17.05s-25.1,22.76-36.58,18.1c0,0-22.95-13.99-31.92-54.15,0,0,19.72-32.63,45.9-45.9,0,0,44.83,10.04,58.81,20.8,0,0,19.72,29.77,25.82,68.85,0,0-26.9,58.81-72.08,82.48,0,0-66.34-14.34-102.21-41.96,0,0-25.82-46.98-28.33-113.32,0,0,42.69-64.55,91.27-90.73,0,0,73.33,5.74,127.12,38.37,0,0,35.14,54.15,49.13,125.87,0,0-16.5,64.91-102.56,109.74,0,0,59.89-54.87,70.65-107.59,0,0,.36-49.49-36.22-99.7,0,0-36.94-25.82-93.6-28.33,0,0-41.96,18.65-64.91,64.91,0,0-1.43,45.19,20.8,77.1,0,0,29.41,22.95,60.25,26.9,0,0,38.37-19.34,47.34-51.45,0,0,.36-22.79-15.06-38.57,0,0-14.34-8.25-31.92-8.97,0,0-17.2,10.04-21.33,22.23,0,0,10.21,19.37,16.31,21.52,0,0,8.97-1.79,16.5-13.27Z"/>
</svg>