<?xml version="1.0" encoding="UTF-8"?>
<svg id="Layer_1" data-name="Layer 1" xmlns="http://www.w3.org/2000/svg" viewBox="0 0 600 600">
  <path d="M291.01,578.19c.24-15.65-19.71-20.68-19.71-20.68v-1.46c37.53-32.7-8.85-57.9-8.85-57.9-15.01-5.09-12.33-15.01-12.33-15.01,5.09-8.58,0-14.48,0-14.48-47.68-33.6-45.27-106.37-44.6-117.56,26.71-4.41,44.84-12.99,44.84-22.86,0-8.31-12.86-15.7-32.86-20.46,17.78-15.03,29.08-37.49,29.08-62.6,0-45.27-36.7-81.96-81.96-81.96s-81.96,36.7-81.96,81.96c0,25.11,11.3,47.57,29.08,62.6-20,4.76-32.86,12.15-32.86,20.46,0,9.87,18.13,18.45,44.84,22.86.67,11.19,3.08,83.96-44.6,117.56,0,0-5.09,5.9,0,14.48,0,0,2.68,9.92-12.33,15.01,0,0-46.38,25.2-8.85,57.9v1.46s-19.95,5.04-19.71,20.68c0,0-.96,11.8,11.07,12.28h230.65c12.04-.48,11.07-12.28,11.07-12.28Z"/>
  <path d="M568.25,578.19c.24-15.65-19.71-20.68-19.71-20.68v-1.46c37.53-32.7-8.85-57.9-8.85-57.9-15.01-5.09-12.33-15.01-12.33-15.01,5.09-8.58,0-14.48,0-14.48-47.68-33.6-45.27-106.37-44.6-117.56,26.71-4.41,44.84-12.99,44.84-22.86,0-8.31-12.86-15.7-32.86-20.46,17.78-15.03,29.08-37.49,29.08-62.6,0-45.27-36.7-81.96-81.96-81.96s-81.96,36.7-81.96,81.96c0,25.11,11.3,47.57,29.08,62.6-20,4.76-32.86,12.15-32.86,20.46,0,9.87,18.13,18.45,44.84,22.86.67,11.19,3.08,83.96-44.6,117.56,0,0-5.09,5.9,0,14.48,0,0,2.68,9.92-12.33,15.01,0,0-46.38,25.2-8.85,57.9v1.46s-19.95,5.04-19.71,20.68c0,0-.96,11.8,11.07,12.28h230.65c12.04-.48,11.07-12.28,11.07-12.28Z"/>
  <polygon points="188.01 64.63 266.95 135.41 245.36 161.8 188.01 64.63"/>
  <polygon points="418.58 64.63 339.41 135.17 361.93 161.8 418.58 64.63"/>
  <polygon points="303.12 13.53 282.3 127.25 303.12 182.2 323.94 127.25 303.12 13.53"/>
</svg>