<?xml version="1.0" encoding="UTF-8"?>
<svg id="Knight_Version" data-name="Knight Version" xmlns="http://www.w3.org/2000/svg" xmlns:xlink="http://www.w3.org/1999/xlink" viewBox="0 0 600 600">
  <defs>
    <style>
      .cls-1 {
        fill: url(#linear-gradient-2);
      }

      .cls-2 {
        fill: url(#linear-gradient-4);
      }

      .cls-3 {
        fill: url(#linear-gradient-3);
      }

      .cls-4 {
        fill: url(#linear-gradient-5);
      }

      .cls-5 {
        fill: url(#linear-gradient);
      }
    </style>
    <linearGradient id="linear-gradient" x1="416.11" y1="328.66" x2="484.93" y2="328.66" gradientUnits="userSpaceOnUse">
      <stop offset="0" stop-color="#6979bb"/>
      <stop offset="1" stop-color="#764c9f"/>
    </linearGradient>
    <linearGradient id="linear-gradient-2" x1="110.62" y1="289.47" x2="223.03" y2="289.47" xlink:href="#linear-gradient"/>
    <linearGradient id="linear-gradient-3" x1="368.16" y1="304.23" x2="590.58" y2="304.23" xlink:href="#linear-gradient"/>
    <linearGradient id="linear-gradient-4" x1="9.69" y1="300" x2="186.63" y2="300" xlink:href="#linear-gradient"/>
    <linearGradient id="linear-gradient-5" x1="196.81" y1="343.53" x2="403.19" y2="343.53" gradientUnits="userSpaceOnUse">
      <stop offset="0" stop-color="#6979bb"/>
      <stop offset="1" stop-color="#764c9f"/>
    </linearGradient>
  </defs>
  <path class="cls-5" d="M432.12,242.04s-.72,27.51,23.53,73.13c0,0,5.43,8.33-2.53,18.46,0,0-34.03,65.17-36.93,75.3,0,0-1.81,15.21,11.95-1.45,0,0,36.2-33.31,55.39-80.37,0,0,5.43-9.05-5.07-19.19,0,0-31.5-54.3-46.34-65.89Z"/>
  <path class="cls-1" d="M223.03,156.47s-76.75,66.61-84.35,85.08c0,0-2.9,3.26,0,12.31l7.24,19.19s1.45,9.77-4.71,14.48l-28.96,47.43s-6.52,2.53,6.52,18.46c0,0,40.55,60.2,53.94,69.02,0,0,5.79,1.21.72-8.56l-32.22-68.79s-2.9-4.71,3.62-11.22l25.7-41.27s2.53-10.5,0-17.38l-5.79-24.62s1.09-5.43,4.34-9.05c0,0,53.58-70.23,53.94-85.08Z"/>
  <path class="cls-3" d="M456.01,562.27h-39.49s115.29-115.57,105.71-130.33l-10.77-25.13s-1.6-2.79.4-9.18c0,0,41.49-78.99,43.08-91.35,0,0,2.39-5.58-4.79-9.97l-38.7-41.89s-2.79.4-3.99-5.58c0,0-29.52-87.36-32.71-88.56,0,0-2.39-6.78-10.77-9.97,0,0-53.06-25.53-65.82-40.69,0,0-31.91-52.66-29.92-63.43,0,0,41.49,39.49,50.26,49.47,0,0,9.57,8.78,16.36,8.78,0,0,58.24,22.34,64.63,30.72,0,0,9.57,9.57,34.31,90.95,0,0,1.99,7.18,10.37,15.96,0,0,33.51,31.12,44.28,46.67,0,0,4.79,8.38,0,17.15l-36.7,93.35s-1.6,6.38,4.79,19.95c0,0,14.76,21.94-1.99,39.09,0,0-15.96,28.72-51.46,58.24l-47.07,45.75Z"/>
  <path class="cls-2" d="M186.63,38.59s-33.56,32.41-62.54,92.29c0,0-60.25,37.75-64.45,57.2,0,0-3.05,26.69-5.72,70.55,0,0-44.24,62.92-44.24,73.98,0,0,16.78,35.08,61.78,98.39,0,0,.76,14.87-12.2,57.2,0,0-1.91,5.72,7.63,13.73,0,0,55.68,55.68,64.83,59.49h47.29l-80.85-75.13s-2.29-6.1,0-9.53l13.35-44.62s1.14-6.48-3.05-13.35l-55.68-84.66s-2.29-3.43,1.91-7.63l30.89-48.81s1.53-4.19,2.67-15.25l6.48-62.16s1.91-5.34,5.72-7.25l42.71-38.13s3.81-3.81,5.34-8.39c0,0,35.85-85.8,38.13-107.92Z"/>
  <path class="cls-4" d="M402.54,295.54s6.59-62.14-21.96-99.46c0,0-19.32-30.08-56.21-36.01,0,0-35.13-40.62-59.72-34.69,0,0-2.85,3.73,7.68,18.88,0,0,13.83,24.81,4.83,26.13,0,0-29.86,13.39-38.42,44.35l-41.94,47.65v13.39s2.42,24.59,20.97,26.35c0,0,21.41,4.39,27.56-6.81,0,0,5.49-10.54,12.52-12.52,0,0,13.61-3.51,14.27-5.71,0,0,5.05-1.54,7.47-.22h20.49s14.2-1.32,17.93-10.32c0,0,2.2.22,0,4.17,0,0-7.68,21.3-30.74,43.91,0,0-50.94,54.01-61.7,86.51,0,0-10.76,27.88-7.47,51.6,0,0,1.1,7.9,21.3,2.85h.97c1.33,3.21,5.83,17-9.97,27.41,0,0-23.93,15.15-23.49,30.52,0,0,.44,12.95,13.83,16.03,0,0,1.98,3.07-3.07,4.61,0,0-10.99,5.49-10.76,19.54,0,0,2.2,8.56,9.89,8.56h170.65c7.68,0,9.89-8.56,9.89-8.56.23-14.05-10.76-19.54-10.76-19.54-5.05-1.54-3.07-4.61-3.07-4.61,13.39-3.07,13.83-16.03,13.83-16.03.44-15.37-23.49-30.52-23.49-30.52-15.81-10.41-11.31-24.2-9.97-27.41h1.14s11.2,3.51,14.93-.66c3.73-4.17-2.42-19.1-2.42-19.1,0,0-4.4-59.5,3.62-75.09,0,0,21.63-55.11,21.41-65.21Z"/>
</svg>