<?xml version="1.0" encoding="UTF-8"?>
<svg id="Queen_Version" data-name="Queen Version" xmlns="http://www.w3.org/2000/svg" xmlns:xlink="http://www.w3.org/1999/xlink" viewBox="0 0 600 600">
  <defs>
    <style>
      .cls-1 {
        fill: url(#linear-gradient-2);
      }

      .cls-2 {
        fill: url(#linear-gradient-4);
      }

      .cls-3 {
        fill: url(#linear-gradient-3);
      }

      .cls-4 {
        fill: url(#linear-gradient-5);
      }

      .cls-5 {
        fill: url(#linear-gradient);
      }
    </style>
    <linearGradient id="linear-gradient" x1="10.69" y1="300" x2="187.63" y2="300" gradientUnits="userSpaceOnUse">
      <stop offset="0" stop-color="#6979bb"/>
      <stop offset="1" stop-color="#764c9f"/>
    </linearGradient>
    <linearGradient id="linear-gradient-2" x1="364.16" y1="304.23" x2="586.58" y2="304.23" xlink:href="#linear-gradient"/>
    <linearGradient id="linear-gradient-3" x1="211.76" y1="353.85" x2="388.24" y2="353.85" xlink:href="#linear-gradient"/>
    <linearGradient id="linear-gradient-4" x1="118.62" y1="289.47" x2="231.03" y2="289.47" xlink:href="#linear-gradient"/>
    <linearGradient id="linear-gradient-5" x1="399.11" y1="328.66" x2="467.93" y2="328.66" xlink:href="#linear-gradient"/>
  </defs>
  <path class="cls-5" d="M187.63,38.59s-33.56,32.41-62.54,92.29c0,0-60.25,37.75-64.45,57.2,0,0-3.05,26.69-5.72,70.55,0,0-44.24,62.92-44.24,73.98,0,0,16.78,35.08,61.78,98.39,0,0,.76,14.87-12.2,57.2,0,0-1.91,5.72,7.63,13.73,0,0,55.68,55.68,64.83,59.49h47.29l-80.85-75.13s-2.29-6.1,0-9.53l13.35-44.62s1.14-6.48-3.05-13.35l-55.68-84.66s-2.29-3.43,1.91-7.63l30.89-48.81s1.53-4.19,2.67-15.25l6.48-62.16s1.91-5.34,5.72-7.25l42.71-38.13s3.81-3.81,5.34-8.39c0,0,35.85-85.8,38.13-107.92Z"/>
  <path class="cls-1" d="M452.01,562.27h-39.49s115.29-115.57,105.71-130.33l-10.77-25.13s-1.6-2.79.4-9.18c0,0,41.49-78.99,43.08-91.35,0,0,2.39-5.58-4.79-9.97l-38.7-41.89s-2.79.4-3.99-5.58c0,0-29.52-87.36-32.71-88.56,0,0-2.39-6.78-10.77-9.97,0,0-53.06-25.53-65.82-40.69,0,0-31.91-52.66-29.92-63.43,0,0,41.49,39.49,50.26,49.47,0,0,9.57,8.78,16.36,8.78,0,0,58.24,22.34,64.63,30.72,0,0,9.57,9.57,34.31,90.95,0,0,1.99,7.18,10.37,15.96,0,0,33.51,31.12,44.28,46.67,0,0,4.79,8.38,0,17.15l-36.7,93.35s-1.6,6.38,4.79,19.95c0,0,14.76,21.94-1.99,39.09,0,0-15.96,28.72-51.46,58.24l-47.07,45.75Z"/>
  <path class="cls-3" d="M376.43,539.6c-2.62-1.01-2.42-2.62-2.42-2.62,36.48-14.91-8.67-46.15-8.67-46.15-9.88-7.05-8.46-13.1-8.46-13.1,2.22-1.01,2.62-5.64,2.62-5.64-.6-6.25-11.29-8.87-11.29-8.87-21.77-64.49-19.31-104.44-19.31-104.44,0-24.01,6.53-30.87,6.53-30.87,15.49,7.08,19.81-7.97,19.81-7.97,1.88-10.62-13.83-13.39-13.83-13.39-4.43-.22-2.87-2.66-2.87-2.66,12.9-14.11-3.02-14.91-3.02-14.91-1.81-18.54,20.96-55.22,20.96-55.22,3.22-3.02,3.02-8.46,3.02-8.46-.2-15.92-16.12-7.46-24.84-7.86-8.72-.4-10.03-5.44-10.03-5.44-3.22-4.43-10.68-3.02-10.68-3.02,1.41-4.03-1.81-9.47-1.81-9.47-2.42-3.63-.81-8.67-.81-8.67,5.04,0,13.3,3.63,13.3,3.63,8.87,1.01,10.03-7.26,10.03-7.26l-.15-8.67c2.42-20.36-24.79-10.88-24.79-10.88,14.51-24.39-9.71-22.14-9.71-22.14,0,0-24.22-2.24-9.71,22.14,0,0-27.21-9.47-24.79,10.88l-.15,8.67s1.16,8.26,10.03,7.26c0,0,8.26-3.63,13.3-3.63,0,0,1.61,5.04-.81,8.67,0,0-3.22,5.44-1.81,9.47,0,0-7.46-1.41-10.68,3.02,0,0-1.31,5.04-10.03,5.44-8.72.4-24.64-8.06-24.84,7.86,0,0-.2,5.44,3.02,8.46,0,0,22.77,36.68,20.96,55.22,0,0-15.92.81-3.02,14.91,0,0,1.55,2.44-2.87,2.66,0,0-15.71,2.77-13.83,13.39,0,0,4.32,15.05,19.81,7.97,0,0,6.53,6.86,6.53,30.87,0,0,2.46,39.95-19.31,104.44,0,0-10.68,2.62-11.29,8.87,0,0,.4,4.64,2.62,5.64,0,0,1.41,6.05-8.46,13.1,0,0-45.15,31.24-8.67,46.15,0,0,.2,1.61-2.42,2.62,0,0-10.88,1.21-10.08,13.1,0,0-2.42,10.68,9.07,9.47h154.87c11.49,1.21,9.07-9.47,9.07-9.47.81-11.89-10.08-13.1-10.08-13.1Z"/>
  <path class="cls-2" d="M231.03,156.47s-76.75,66.61-84.35,85.08c0,0-2.9,3.26,0,12.31l7.24,19.19s1.45,9.77-4.71,14.48l-28.96,47.43s-6.52,2.53,6.52,18.46c0,0,40.55,60.2,53.94,69.02,0,0,5.79,1.21.72-8.56l-32.22-68.79s-2.9-4.71,3.62-11.22l25.7-41.27s2.53-10.5,0-17.38l-5.79-24.62s1.09-5.43,4.34-9.05c0,0,53.58-70.23,53.94-85.08Z"/>
  <path class="cls-4" d="M415.12,242.04s-.72,27.51,23.53,73.13c0,0,5.43,8.33-2.53,18.46,0,0-34.03,65.17-36.93,75.3,0,0-1.81,15.21,11.95-1.45,0,0,36.2-33.31,55.39-80.37,0,0,5.43-9.05-5.07-19.19,0,0-31.5-54.3-46.34-65.89Z"/>
</svg>