<?xml version="1.0" encoding="UTF-8"?>
<svg id="Layer_1" data-name="Layer 1" xmlns="http://www.w3.org/2000/svg" xmlns:xlink="http://www.w3.org/1999/xlink" viewBox="0 0 600 600">
  <defs>
    <style>
      .cls-1 {
        fill: url(#linear-gradient);
      }
    </style>
    <linearGradient id="linear-gradient" x1="49.5" y1="302.09" x2="553.16" y2="302.09" gradientUnits="userSpaceOnUse">
      <stop offset="0" stop-color="#6979bb"/>
      <stop offset="1" stop-color="#764c9f"/>
    </linearGradient>
  </defs>
  <path class="cls-1" d="M299.98,10.8L49.5,150.71v298.57l250.48,144.11,253.18-143.4V150.69L299.98,10.8ZM537.78,194.16v241.01l-62.48-37.82,62.48-203.19ZM466.62,384.75L311.85,103.24l224.33,55.3-69.55,226.21ZM64.29,162.56s0,0,0,0l-1.21-4.01,225-55.3-156.5,281.51-38.21-126.21-29.07-95.99ZM458.05,394.06H140.13l38.28-68.87,121.56-218.65,158.08,287.52ZM454.7,406.06l-154.72,171.49-156.45-171.49h311.18ZM294,89.44l-196.78,48.36L294,27.88v61.55ZM90.28,289.82l32.57,107.56-61.35,37.71v-240.33l28.78,95.06ZM128.84,407.77l140.77,154.31-202.38-116.43,61.61-37.87ZM469.33,407.76l64.8,39.22-204.87,116.04,140.08-155.26ZM306,89.44V27.83l201.29,111.23-201.29-49.62Z"/>
</svg>