<?xml version="1.0" encoding="UTF-8"?>
<svg id="Layer_1" data-name="Layer 1" xmlns="http://www.w3.org/2000/svg" xmlns:xlink="http://www.w3.org/1999/xlink" viewBox="0 0 600 600">
  <defs>
    <style>
      .cls-1 {
        fill: url(#linear-gradient-2);
      }

      .cls-2 {
        fill: url(#linear-gradient);
      }
    </style>
    <linearGradient id="linear-gradient" x1="44.5" y1="300.11" x2="558.16" y2="300.11" gradientUnits="userSpaceOnUse">
      <stop offset="0" stop-color="#6979bb"/>
      <stop offset="1" stop-color="#764c9f"/>
    </linearGradient>
    <linearGradient id="linear-gradient-2" x1="49.5" y1="300.09" x2="553.16" y2="300.09" xlink:href="#linear-gradient"/>
  </defs>
  <path class="cls-2" d="M44.5,450.17V145.78L299.97,3.08l258.19,142.67v305.16l-258.2,146.24L44.5,450.17ZM299.96,568.11l143.5-159.05H154.85l145.1,159.05ZM353.62,541.47l170.61-96.63-53.96-32.66-116.65,129.29ZM244.29,539.74l-116.36-127.54-50.92,31.3,167.28,96.24ZM532.78,424.3v-198.86l-51.55,167.66,51.55,31.2ZM66.5,424.14l50.45-31.01-50.45-166.61v197.62ZM449.59,387.06L299.95,114.88l-151.32,272.19h300.96ZM132.93,370.02L278.13,108.84l-208.74,51.3,63.55,209.87ZM465.32,369.99l64.53-209.87-208.12-51.3,143.59,261.17ZM471.8,123.16l-160.8-88.85v49.22l160.8,39.64ZM131.99,122.1l157.01-38.59v-49.11l-157.01,87.7Z"/>
  <path class="cls-1" d="M299.98,8.8L49.5,148.71v298.57l250.48,144.11,253.18-143.4V148.69L299.98,8.8ZM537.78,192.16v241.01l-62.48-37.82,62.48-203.19ZM466.62,382.75L311.85,101.24l224.33,55.3-69.55,226.21ZM64.29,160.56s0,0,0,0l-1.21-4.01,225-55.3-156.5,281.51-38.21-126.21-29.07-95.99ZM458.05,392.06H140.13l38.28-68.87,121.56-218.65,158.08,287.52ZM454.7,404.06l-154.72,171.49-156.45-171.49h311.18ZM294,87.44l-196.78,48.36L294,25.88v61.55ZM90.28,287.82l32.57,107.56-61.35,37.71v-240.33l28.78,95.06ZM128.84,405.77l140.77,154.31-202.38-116.43,61.61-37.87ZM469.33,405.76l64.8,39.22-204.87,116.04,140.08-155.26ZM306,87.44V25.83l201.29,111.23-201.29-49.62Z"/>
</svg>